<?xml version="1.0" encoding="utf-8"?>
<!-- Generator: Adobe Illustrator 22.0.0, SVG Export Plug-In . SVG Version: 6.00 Build 0)  -->
<svg version="1.1" id="图层_1" xmlns="http://www.w3.org/2000/svg" xmlns:xlink="http://www.w3.org/1999/xlink" x="0px" y="0px"
	 viewBox="0 0 800 800" style="enable-background:new 0 0 800 800;" xml:space="preserve">
<style type="text/css">
	.st0{fill:#FFFFFF;}
	.st1{fill:#040000;}
	.st2{fill:url(#SVGID_1_);}
	.st3{fill:url(#SVGID_2_);}
	.st4{fill:url(#SVGID_3_);}
	.st5{fill:url(#SVGID_4_);}
	.st6{fill:url(#SVGID_5_);}
	.st7{fill:url(#SVGID_6_);}
	.st8{fill:url(#SVGID_7_);}
	.st9{fill:url(#SVGID_8_);}
	.st10{fill:url(#SVGID_9_);}
	.st11{fill:url(#SVGID_10_);}
	.st12{fill:url(#SVGID_11_);}
	.st13{fill:url(#SVGID_12_);}
	.st14{fill:url(#SVGID_13_);}
	.st15{fill:url(#SVGID_14_);}
	.st16{fill:url(#SVGID_15_);}
	.st17{fill:url(#SVGID_16_);}
	.st18{fill:url(#SVGID_17_);}
</style>
<g>
	<g>
		<linearGradient id="SVGID_1_" gradientUnits="userSpaceOnUse" x1="21.1063" y1="557.2855" x2="857.9193" y2="557.2855">
			<stop  offset="0" style="stop-color:#ABD8B9"/>
			<stop  offset="0.5" style="stop-color:#3AB1E7"/>
			<stop  offset="1" style="stop-color:#424D9F"/>
		</linearGradient>
		<path class="st2" d="M50.5,571.4V604H30.6v-93.5h46.7c8.5,0,14.6,0.6,18.2,1.8c6.2,2.1,11,6.3,14.6,12.8
			c2.6,4.9,3.9,10.1,3.9,15.8c0,4.8-0.9,9.3-2.6,13.5c-1.7,4.3-4.1,7.7-7.2,10.4c-2.8,2.4-5.8,4.1-8.9,5c-3.1,0.9-7.4,1.4-12.8,1.4
			H50.5z M50.5,554.7h27.1c4.9,0,8.3-0.7,10.2-2.2c2.9-2.3,4.3-6.4,4.3-12.2c0-6.3-2.2-10.3-6.6-12.1c-1.6-0.7-4.1-1-7.6-1H50.5
			V554.7z"/>
		<linearGradient id="SVGID_2_" gradientUnits="userSpaceOnUse" x1="21.1063" y1="557.2855" x2="857.9193" y2="557.2855">
			<stop  offset="0" style="stop-color:#ABD8B9"/>
			<stop  offset="0.5" style="stop-color:#3AB1E7"/>
			<stop  offset="1" style="stop-color:#424D9F"/>
		</linearGradient>
		<path class="st3" d="M145,604h-18.8v-93.5H145V604z"/>
		<linearGradient id="SVGID_3_" gradientUnits="userSpaceOnUse" x1="21.1063" y1="569.9024" x2="857.9193" y2="569.9024">
			<stop  offset="0" style="stop-color:#ABD8B9"/>
			<stop  offset="0.5" style="stop-color:#3AB1E7"/>
			<stop  offset="1" style="stop-color:#424D9F"/>
		</linearGradient>
		<path class="st4" d="M210.6,562.5c0-4.8-1-8-2.9-9.7c-1.9-1.7-5.7-2.5-11.4-2.5h-31.7v-14.6h31.7c5.7,0,9.6,0.1,11.8,0.3
			c2.1,0.2,4.3,0.7,6.6,1.3c10.4,3.9,15.3,13.3,14.7,28.2V604h-39.5c-7.1,0-12-0.2-14.7-0.6c-2.7-0.4-5.1-1.3-7.1-2.6
			c-5.5-3.7-8.3-9.4-8.3-17c0-4.6,1.1-8.7,3.3-12.3c2.2-3.6,5.1-6.1,8.8-7.4c3.2-1.1,8.5-1.7,15.8-1.7H210.6z M210.6,577.1H189h-3.2
			c-2.2,0-3.9,0.6-5.1,1.7c-1.3,1.1-1.9,2.7-1.9,4.6c0,2.2,0.8,3.7,2.3,4.6c1.5,0.9,4.2,1.4,7.9,1.4h21.6V577.1z"/>
		<linearGradient id="SVGID_4_" gradientUnits="userSpaceOnUse" x1="21.1063" y1="569.9024" x2="857.9193" y2="569.9024">
			<stop  offset="0" style="stop-color:#ABD8B9"/>
			<stop  offset="0.5" style="stop-color:#3AB1E7"/>
			<stop  offset="1" style="stop-color:#424D9F"/>
		</linearGradient>
		<path class="st5" d="M246.9,535.8h36.2c5.4,0,9.6,0.4,12.4,1.2c2.8,0.8,5.4,2.2,7.8,4.3c4.8,4.4,7.1,11.3,7.1,20.7V604h-18.8
			v-44.2c0-3.4-0.7-5.8-2.2-7.3c-1.5-1.5-4-2.2-7.4-2.2h-16.3V604h-18.8V535.8z"/>
		<linearGradient id="SVGID_5_" gradientUnits="userSpaceOnUse" x1="21.1063" y1="569.9024" x2="857.9193" y2="569.9024">
			<stop  offset="0" style="stop-color:#ABD8B9"/>
			<stop  offset="0.5" style="stop-color:#3AB1E7"/>
			<stop  offset="1" style="stop-color:#424D9F"/>
		</linearGradient>
		<path class="st6" d="M387.4,535.8v14.6h-33.2c-3.8,0-6.3,0.2-7.3,0.6c-2.2,0.7-3.2,2.6-3.2,5.5c0,2.4,1,4.3,3.1,5.6
			c1.1,0.7,4.1,1.1,9.1,1.1h11c7.1,0,12.7,1.5,16.8,4.5c4.6,3.4,6.8,8.3,6.8,14.9c0,5-1.4,9.5-4.2,13.6c-2.1,3.3-4.6,5.4-7.5,6.4
			c-2.9,1-7.9,1.5-14.8,1.5h-38.8v-14.6h33.5c4.1,0,6.9,0,8.4-0.1c3.4-0.4,5-2.3,5-5.7c0-2.8-1.1-4.7-3.4-5.7
			c-1.1-0.6-3.8-0.8-8.1-0.8h-11.4c-4.5,0-7.9-0.3-10.3-0.8c-2.4-0.6-4.6-1.6-6.7-3.1c-2.5-1.8-4.5-4.2-6-7.4
			c-1.5-3.1-2.2-6.5-2.2-10c0-6.8,2.5-12.2,7.5-16.3c3-2.4,8.2-3.6,15.6-3.6H387.4z"/>
		<linearGradient id="SVGID_6_" gradientUnits="userSpaceOnUse" x1="21.1063" y1="582.729" x2="857.9193" y2="582.729">
			<stop  offset="0" style="stop-color:#ABD8B9"/>
			<stop  offset="0.5" style="stop-color:#3AB1E7"/>
			<stop  offset="1" style="stop-color:#424D9F"/>
		</linearGradient>
		<path class="st7" d="M404.8,535.8h32.9c6.4,0,11.2,0.4,14.5,1.2c3.3,0.8,6.4,2.4,9.4,4.7c8.1,6.4,12.2,16.1,12.2,29.3
			c0,10-3,18.1-9,24.3c-3,3.1-6.4,5.3-10.3,6.7c-3.9,1.4-8.6,2.1-14.3,2.1h-16.6v25.7h-18.8V535.8z M423.5,550.3v39.1H435
			c6.1,0,10.5-1.3,13.3-3.9c3.9-3.5,5.9-8.8,5.9-16c0-6.2-1.5-10.9-4.6-14.2c-3.1-3.3-7.5-5-13.3-5H423.5z"/>
		<linearGradient id="SVGID_7_" gradientUnits="userSpaceOnUse" x1="21.1063" y1="557.2855" x2="857.9193" y2="557.2855">
			<stop  offset="0" style="stop-color:#ABD8B9"/>
			<stop  offset="0.5" style="stop-color:#3AB1E7"/>
			<stop  offset="1" style="stop-color:#424D9F"/>
		</linearGradient>
		<path class="st8" d="M487.3,528.8v-18.2h18.8v18.2H487.3z M487.3,535.8h18.8V604h-18.8V535.8z"/>
		<linearGradient id="SVGID_8_" gradientUnits="userSpaceOnUse" x1="21.1063" y1="569.9024" x2="857.9193" y2="569.9024">
			<stop  offset="0" style="stop-color:#ABD8B9"/>
			<stop  offset="0.5" style="stop-color:#3AB1E7"/>
			<stop  offset="1" style="stop-color:#424D9F"/>
		</linearGradient>
		<path class="st9" d="M580.4,562.5v14.6h-39.5c0.4,4.5,1.8,7.7,4.3,9.5c2.5,1.9,6.6,2.8,12.3,2.8h22.9V604h-25
			c-5.4,0-9.8-0.5-13.2-1.5c-3.4-1-6.6-2.6-9.6-4.8c-8.3-6.4-12.5-16-12.5-28.7c0-8.2,2.2-15.4,6.6-21.6c3-4.2,6.6-7.2,10.8-9
			c4.2-1.8,9.7-2.7,16.5-2.7h26.4v14.6h-25c-5.1,0-8.7,0.9-10.8,2.6c-2.1,1.7-3.3,4.9-3.8,9.6H580.4z"/>
		<linearGradient id="SVGID_9_" gradientUnits="userSpaceOnUse" x1="21.1063" y1="582.0276" x2="857.9193" y2="582.0276">
			<stop  offset="0" style="stop-color:#ABD8B9"/>
			<stop  offset="0.5" style="stop-color:#3AB1E7"/>
			<stop  offset="1" style="stop-color:#424D9F"/>
		</linearGradient>
		<path class="st10" d="M661.1,535.8v67.8c0,3.8-0.4,7.2-1.3,10.2c-0.9,3-2.2,5.5-3.9,7.6c-2.2,2.6-4.7,4.4-7.8,5.4
			c-3,1-7.5,1.5-13.2,1.5h-37.4v-14.6h34.9c4.1,0,6.8-0.6,8.1-1.9c1.3-1.3,1.9-3.9,1.9-7.8h-17.2c-5.5,0-10.1-0.6-13.7-1.8
			c-3.6-1.2-6.8-3.1-9.7-5.8c-6.8-6.5-10.2-15.3-10.2-26.6c0-12.9,4.2-22.3,12.5-28.2c3-2.1,6.1-3.7,9.5-4.6
			c3.3-0.9,7.5-1.3,12.7-1.3H661.1z M642.4,550.3h-15.6c-10.8,0-16.3,6.5-16.3,19.6c0,6.4,1.5,11.2,4.4,14.5c2.9,3.3,7.2,5,12.8,5
			h14.6V550.3z"/>
		<linearGradient id="SVGID_10_" gradientUnits="userSpaceOnUse" x1="21.1063" y1="569.9024" x2="857.9193" y2="569.9024">
			<stop  offset="0" style="stop-color:#ABD8B9"/>
			<stop  offset="0.5" style="stop-color:#3AB1E7"/>
			<stop  offset="1" style="stop-color:#424D9F"/>
		</linearGradient>
		<path class="st11" d="M735.3,562.5v14.6h-39.5c0.4,4.5,1.8,7.7,4.3,9.5c2.5,1.9,6.6,2.8,12.3,2.8h22.9V604h-25
			c-5.4,0-9.8-0.5-13.2-1.5c-3.4-1-6.6-2.6-9.6-4.8c-8.3-6.4-12.5-16-12.5-28.7c0-8.2,2.2-15.4,6.6-21.6c3-4.2,6.6-7.2,10.8-9
			c4.2-1.8,9.7-2.7,16.5-2.7h26.4v14.6h-25c-5.1,0-8.7,0.9-10.8,2.6c-2.1,1.7-3.3,4.9-3.8,9.6H735.3z"/>
		<linearGradient id="SVGID_11_" gradientUnits="userSpaceOnUse" x1="21.1063" y1="557.2855" x2="857.9193" y2="557.2855">
			<stop  offset="0" style="stop-color:#ABD8B9"/>
			<stop  offset="0.5" style="stop-color:#3AB1E7"/>
			<stop  offset="1" style="stop-color:#424D9F"/>
		</linearGradient>
		<path class="st12" d="M769.4,604h-18.8v-93.5h18.8V604z"/>
	</g>
	<g>
		<linearGradient id="SVGID_12_" gradientUnits="userSpaceOnUse" x1="391.4583" y1="280.9027" x2="492.1409" y2="280.9027">
			<stop  offset="0" style="stop-color:#ABD8B9"/>
			<stop  offset="0.5" style="stop-color:#3AB1E7"/>
			<stop  offset="1" style="stop-color:#424D9F"/>
		</linearGradient>
		<path class="st13" d="M426.7,311c-4,16.2-18.4,22.9-35.2,22.9c0,0,71.7,0,100.7-36.9c0-30.9-8.7-53.9-26.2-69
			C475.5,289.6,426.7,311,426.7,311z"/>
		<linearGradient id="SVGID_13_" gradientUnits="userSpaceOnUse" x1="392.4671" y1="258.1722" x2="465.2916" y2="258.1722">
			<stop  offset="0" style="stop-color:#ABD8B9"/>
			<stop  offset="0.5" style="stop-color:#3AB1E7"/>
			<stop  offset="1" style="stop-color:#424D9F"/>
		</linearGradient>
		<path class="st14" d="M428.4,296.9c0,4.9-0.6,9.6-1.7,14c0,0,48.8-21.4,39.2-83c-17.5-15.1-42.3-22.6-74.4-22.6
			C449.1,237.3,428.4,296.9,428.4,296.9z"/>
		<linearGradient id="SVGID_14_" gradientUnits="userSpaceOnUse" x1="352.2747" y1="251.1551" x2="430.4284" y2="251.1551">
			<stop  offset="0" style="stop-color:#ABD8B9"/>
			<stop  offset="0.5" style="stop-color:#3AB1E7"/>
			<stop  offset="1" style="stop-color:#424D9F"/>
		</linearGradient>
		<path class="st15" d="M418.5,274c6.6,5.5,9.9,13.1,9.9,22.9c0,0,20.8-59.6-36.9-91.5h-38C410,223.9,418.5,274,418.5,274z"/>
		<linearGradient id="SVGID_15_" gradientUnits="userSpaceOnUse" x1="321.8161" y1="409.805" x2="354.66" y2="455.2812">
			<stop  offset="0" style="stop-color:#424D9F"/>
			<stop  offset="0.5" style="stop-color:#3AB1E7"/>
			<stop  offset="1" style="stop-color:#ABD8B9"/>
		</linearGradient>
		<path class="st16" d="M307.9,435.6v40.1h0c35.2,0,63.8-28.5,63.8-63.8v-18.2C371.6,393.6,307.9,395.5,307.9,435.6z"/>
		<linearGradient id="SVGID_16_" gradientUnits="userSpaceOnUse" x1="307.8591" y1="366.2376" x2="492.1409" y2="366.2376">
			<stop  offset="0" style="stop-color:#ABD8B9"/>
			<stop  offset="0.5" style="stop-color:#3AB1E7"/>
			<stop  offset="1" style="stop-color:#424D9F"/>
		</linearGradient>
		<path class="st17" d="M307.9,435.6c0-40.1,63.8-41.9,63.8-41.9h19.8c63.5,0,100.7-33.2,100.7-96.7c-29,36.9-100.7,36.9-100.7,36.9
			h0c-46.1-0.2-83.6,37.1-83.6,83.2V435.6z"/>
		<linearGradient id="SVGID_17_" gradientUnits="userSpaceOnUse" x1="420.6589" y1="239.7143" x2="309.6948" y2="239.7143">
			<stop  offset="0" style="stop-color:#424D9F"/>
			<stop  offset="0.5" style="stop-color:#3AB1E7"/>
			<stop  offset="1" style="stop-color:#ABD8B9"/>
		</linearGradient>
		<path class="st18" d="M367.6,265.6c32.8,0.3,42.6,1.6,50.9,8.5c0,0-8.5-50.1-65-68.6h-45.6v0C307.9,238.4,334.5,265.3,367.6,265.6
			z"/>
	</g>
</g>
</svg>
